<svg width="460" height="920" viewBox="0 0 460 920" fill="none" xmlns="http://www.w3.org/2000/svg">
<rect width="460" height="920" rx="10" fill="#93FF82"/>
<path d="M203.516 466H197.76L210.694 430.06H216.959L229.893 466H224.136L213.976 436.588H213.695L203.516 466ZM204.481 451.926H223.154V456.488H204.481V451.926ZM233.837 458.98V454.593L249.368 430.06H252.825V436.518H250.631L239.523 454.102V454.383H260.81V458.98H233.837ZM250.877 466V457.647L250.912 455.646V430.06H256.054V466H250.877ZM171.321 496L179.166 480.487V480.355H170.093V478.03H181.974V480.434L174.156 496H171.321ZM190.895 496.298C189.509 496.292 188.324 495.927 187.341 495.202C186.359 494.476 185.607 493.42 185.086 492.034C184.566 490.648 184.306 488.977 184.306 487.024C184.306 485.076 184.566 483.411 185.086 482.031C185.613 480.65 186.368 479.597 187.35 478.872C188.339 478.147 189.521 477.784 190.895 477.784C192.27 477.784 193.449 478.15 194.431 478.881C195.414 479.606 196.166 480.659 196.686 482.04C197.213 483.414 197.476 485.076 197.476 487.024C197.476 488.983 197.216 490.656 196.695 492.043C196.175 493.423 195.423 494.479 194.44 495.21C193.457 495.936 192.276 496.298 190.895 496.298ZM190.895 493.956C192.112 493.956 193.062 493.362 193.747 492.174C194.437 490.987 194.782 489.27 194.782 487.024C194.782 485.532 194.624 484.271 194.308 483.242C193.998 482.206 193.551 481.423 192.966 480.89C192.387 480.352 191.697 480.083 190.895 480.083C189.684 480.083 188.734 480.68 188.043 481.873C187.353 483.066 187.005 484.783 186.999 487.024C186.999 488.521 187.154 489.788 187.464 490.823C187.78 491.853 188.228 492.634 188.807 493.166C189.386 493.692 190.082 493.956 190.895 493.956ZM206.845 496.298C205.459 496.292 204.274 495.927 203.291 495.202C202.309 494.476 201.557 493.42 201.036 492.034C200.516 490.648 200.255 488.977 200.255 487.024C200.255 485.076 200.516 483.411 201.036 482.031C201.563 480.65 202.317 479.597 203.3 478.872C204.289 478.147 205.47 477.784 206.845 477.784C208.22 477.784 209.398 478.15 210.381 478.881C211.364 479.606 212.116 480.659 212.636 482.04C213.163 483.414 213.426 485.076 213.426 487.024C213.426 488.983 213.166 490.656 212.645 492.043C212.124 493.423 211.373 494.479 210.39 495.21C209.407 495.936 208.226 496.298 206.845 496.298ZM206.845 493.956C208.062 493.956 209.012 493.362 209.697 492.174C210.387 490.987 210.732 489.27 210.732 487.024C210.732 485.532 210.574 484.271 210.258 483.242C209.948 482.206 209.501 481.423 208.916 480.89C208.337 480.352 207.647 480.083 206.845 480.083C205.634 480.083 204.684 480.68 203.993 481.873C203.303 483.066 202.955 484.783 202.949 487.024C202.949 488.521 203.104 489.788 203.414 490.823C203.73 491.853 204.178 492.634 204.757 493.166C205.336 493.692 206.032 493.956 206.845 493.956ZM227.252 493.017L217.162 482.926L218.82 481.268L228.911 491.358L227.252 493.017ZM218.82 493.017L217.162 491.358L227.252 481.268L228.911 482.926L218.82 493.017ZM239.813 478.03V496H237.093V480.75H236.988L232.688 483.558V480.96L237.172 478.03H239.813ZM244.297 492.49V490.297L252.062 478.03H253.791V481.259H252.694L247.14 490.051V490.191H257.783V492.49H244.297ZM252.817 496V491.823L252.835 490.823V478.03H255.406V496H252.817ZM267.098 496.298C265.711 496.292 264.527 495.927 263.544 495.202C262.561 494.476 261.81 493.42 261.289 492.034C260.768 490.648 260.508 488.977 260.508 487.024C260.508 485.076 260.768 483.411 261.289 482.031C261.815 480.65 262.57 479.597 263.553 478.872C264.541 478.147 265.723 477.784 267.098 477.784C268.472 477.784 269.651 478.15 270.634 478.881C271.617 479.606 272.368 480.659 272.889 482.04C273.415 483.414 273.679 485.076 273.679 487.024C273.679 488.983 273.418 490.656 272.898 492.043C272.377 493.423 271.625 494.479 270.643 495.21C269.66 495.936 268.478 496.298 267.098 496.298ZM267.098 493.956C268.314 493.956 269.265 493.362 269.949 492.174C270.64 490.987 270.985 489.27 270.985 487.024C270.985 485.532 270.827 484.271 270.511 483.242C270.201 482.206 269.753 481.423 269.168 480.89C268.589 480.352 267.899 480.083 267.098 480.083C265.887 480.083 264.936 480.68 264.246 481.873C263.556 483.066 263.208 484.783 263.202 487.024C263.202 488.521 263.357 489.788 263.667 490.823C263.983 491.853 264.43 492.634 265.009 493.166C265.588 493.692 266.285 493.956 267.098 493.956ZM283.048 496.298C281.661 496.292 280.477 495.927 279.494 495.202C278.511 494.476 277.759 493.42 277.239 492.034C276.718 490.648 276.458 488.977 276.458 487.024C276.458 485.076 276.718 483.411 277.239 482.031C277.765 480.65 278.52 479.597 279.503 478.872C280.491 478.147 281.673 477.784 283.048 477.784C284.422 477.784 285.601 478.15 286.584 478.881C287.566 479.606 288.318 480.659 288.839 482.04C289.365 483.414 289.628 485.076 289.628 487.024C289.628 488.983 289.368 490.656 288.848 492.043C288.327 493.423 287.575 494.479 286.592 495.21C285.61 495.936 284.428 496.298 283.048 496.298ZM283.048 493.956C284.264 493.956 285.215 493.362 285.899 492.174C286.59 490.987 286.935 489.27 286.935 487.024C286.935 485.532 286.777 484.271 286.461 483.242C286.151 482.206 285.703 481.423 285.118 480.89C284.539 480.352 283.849 480.083 283.048 480.083C281.837 480.083 280.886 480.68 280.196 481.873C279.506 483.066 279.158 484.783 279.152 487.024C279.152 488.521 279.307 489.788 279.617 490.823C279.933 491.853 280.38 492.634 280.959 493.166C281.538 493.692 282.234 493.956 283.048 493.956Z" fill="black"/>
</svg>
