<svg width="114" height="65" viewBox="0 0 114 65" fill="none" xmlns="http://www.w3.org/2000/svg">
<path d="M36.456 35.5H30.8651L43.4276 0.590908H49.5128L62.0753 35.5H56.4844L46.6151 6.93182H46.3423L36.456 35.5ZM37.3935 21.8295H55.5298V26.2614H37.3935V21.8295ZM78.2429 0.590908V35.5H72.9588V5.875H72.7543L64.402 11.3295V6.28409L73.1122 0.590908H78.2429ZM0.682884 64.5V62.5909L6.58913 56.4716C7.21982 55.8068 7.7397 55.2244 8.14879 54.7244C8.56357 54.2187 8.87322 53.7386 9.07777 53.2841C9.28232 52.8295 9.38459 52.3466 9.38459 51.8352C9.38459 51.2557 9.24822 50.7557 8.9755 50.3352C8.70277 49.9091 8.33061 49.5824 7.85902 49.3551C7.38743 49.1222 6.85618 49.0057 6.26527 49.0057C5.64027 49.0057 5.09482 49.1335 4.62891 49.3892C4.163 49.6449 3.80504 50.0057 3.55504 50.4716C3.30504 50.9375 3.18004 51.483 3.18004 52.108H0.665838C0.665838 51.0455 0.910156 50.1165 1.39879 49.321C1.88743 48.5256 2.55788 47.9091 3.41016 47.4716C4.26243 47.0284 5.23118 46.8068 6.31641 46.8068C7.413 46.8068 8.37891 47.0256 9.21413 47.4631C10.055 47.8949 10.7113 48.4858 11.1829 49.2358C11.6545 49.9801 11.8903 50.821 11.8903 51.7585C11.8903 52.4062 11.7681 53.0398 11.5238 53.6591C11.2852 54.2784 10.8675 54.9687 10.271 55.7301C9.67436 56.4858 8.84482 57.4034 7.78232 58.483L4.31357 62.1136V62.2415H12.1715V64.5H0.682884ZM22.0238 47.0455V64.5H19.3817V49.6875H19.2795L15.1033 52.4148V49.892L19.4585 47.0455H22.0238ZM26.7454 64.5V62.5909L32.6516 56.4716C33.2823 55.8068 33.8022 55.2244 34.2113 54.7244C34.6261 54.2187 34.9357 53.7386 35.1403 53.2841C35.3448 52.8295 35.4471 52.3466 35.4471 51.8352C35.4471 51.2557 35.3107 50.7557 35.038 50.3352C34.7653 49.9091 34.3931 49.5824 33.9215 49.3551C33.4499 49.1222 32.9187 49.0057 32.3278 49.0057C31.7028 49.0057 31.1573 49.1335 30.6914 49.3892C30.2255 49.6449 29.8675 50.0057 29.6175 50.4716C29.3675 50.9375 29.2425 51.483 29.2425 52.108H26.7283C26.7283 51.0455 26.9727 50.1165 27.4613 49.321C27.9499 48.5256 28.6204 47.9091 29.4727 47.4716C30.3249 47.0284 31.2937 46.8068 32.3789 46.8068C33.4755 46.8068 34.4414 47.0256 35.2766 47.4631C36.1175 47.8949 36.7738 48.4858 37.2454 49.2358C37.717 49.9801 37.9528 50.821 37.9528 51.7585C37.9528 52.4062 37.8306 53.0398 37.5863 53.6591C37.3477 54.2784 36.93 54.9687 36.3335 55.7301C35.7369 56.4858 34.9073 57.4034 33.8448 58.483L30.3761 62.1136V62.2415H38.234V64.5H26.7454ZM47.5579 64.7386C46.7795 64.7273 46.0124 64.5852 45.2567 64.3125C44.5067 64.0398 43.8249 63.5852 43.2113 62.9489C42.5977 62.3125 42.1062 61.4574 41.7369 60.3835C41.3732 59.3097 41.1914 57.9687 41.1914 56.3608C41.1914 54.8381 41.342 53.4858 41.6431 52.304C41.9499 51.1222 42.3903 50.125 42.9641 49.3125C43.538 48.4943 44.2312 47.8722 45.0437 47.446C45.8562 47.0199 46.7681 46.8068 47.7795 46.8068C48.8192 46.8068 49.7425 47.0114 50.5494 47.4205C51.3562 47.8295 52.0096 48.3949 52.5096 49.1165C53.0153 49.8381 53.3363 50.6591 53.4727 51.5795H50.8732C50.6971 50.8523 50.3477 50.2585 49.8249 49.7983C49.3022 49.3381 48.6204 49.108 47.7795 49.108C46.5011 49.108 45.5039 49.6648 44.788 50.7784C44.0778 51.892 43.7198 53.4403 43.7141 55.4233H43.842C44.1431 54.929 44.5124 54.5085 44.9499 54.1619C45.3931 53.8097 45.8874 53.5398 46.4329 53.3523C46.984 53.1591 47.5636 53.0625 48.1715 53.0625C49.1829 53.0625 50.0977 53.3097 50.9158 53.804C51.7397 54.2926 52.396 54.9687 52.8846 55.8324C53.3732 56.696 53.6175 57.6847 53.6175 58.7983C53.6175 59.9119 53.3647 60.9205 52.859 61.8239C52.359 62.7273 51.6545 63.4432 50.7454 63.9716C49.8363 64.4943 48.7738 64.75 47.5579 64.7386ZM47.5494 62.5227C48.2198 62.5227 48.8192 62.358 49.3477 62.0284C49.8761 61.6989 50.2937 61.2557 50.6005 60.6989C50.9073 60.142 51.0607 59.5199 51.0607 58.8324C51.0607 58.1619 50.9102 57.5511 50.609 57C50.3136 56.4489 49.9045 56.0114 49.3817 55.6875C48.8647 55.3636 48.2738 55.2017 47.609 55.2017C47.1033 55.2017 46.6346 55.2983 46.2028 55.4915C45.7766 55.6847 45.4016 55.9517 45.0778 56.2926C44.7539 56.6335 44.4982 57.0256 44.3107 57.4688C44.1289 57.9062 44.038 58.3693 44.038 58.858C44.038 59.5114 44.1886 60.1165 44.4897 60.6733C44.7965 61.2301 45.2141 61.679 45.7425 62.0199C46.2766 62.3551 46.8789 62.5227 47.5494 62.5227ZM67.1282 61.6023L57.3271 51.8011L58.9379 50.1903L68.739 59.9915L67.1282 61.6023ZM58.9379 61.6023L57.3271 59.9915L67.1282 50.1903L68.739 51.8011L58.9379 61.6023ZM72.3398 61.0909V58.9602L79.8825 47.0455H81.5614V50.1818H80.4961L75.1012 58.7216V58.858H85.4393V61.0909H72.3398ZM80.6154 64.5V60.4432L80.6325 59.4716V47.0455H83.1296V64.5H80.6154ZM88.9975 64.5L96.6168 49.4318V49.304H87.8043V47.0455H99.3441V49.3807L91.7504 64.5H88.9975ZM103.365 64.5L110.984 49.4318V49.304H102.172V47.0455H113.711V49.3807L106.118 64.5H103.365Z" fill="black"/>
</svg>
