<svg width="1408" height="363" viewBox="0 0 1408 363" fill="none" xmlns="http://www.w3.org/2000/svg">
<rect width="1408" height="363" fill="#93FF82"/>
<path d="M679.097 186.5H673.506L686.068 151.591H692.153L704.716 186.5H699.125L689.256 157.932H688.983L679.097 186.5ZM680.034 172.83H698.17V177.261H680.034V172.83ZM720.803 186.977C718.666 186.977 716.746 186.568 715.041 185.75C713.348 184.92 711.996 183.784 710.984 182.341C709.973 180.898 709.433 179.25 709.365 177.398H714.479C714.604 178.898 715.268 180.131 716.473 181.097C717.678 182.062 719.121 182.545 720.803 182.545C722.143 182.545 723.331 182.239 724.365 181.625C725.411 181 726.229 180.142 726.82 179.051C727.422 177.96 727.723 176.716 727.723 175.318C727.723 173.898 727.416 172.631 726.803 171.517C726.189 170.403 725.342 169.528 724.263 168.892C723.195 168.256 721.967 167.932 720.581 167.92C719.524 167.92 718.462 168.102 717.393 168.466C716.325 168.83 715.462 169.307 714.803 169.898L709.979 169.182L711.939 151.591H731.132V156.108H716.32L715.212 165.875H715.416C716.098 165.216 717.001 164.665 718.126 164.222C719.263 163.778 720.479 163.557 721.774 163.557C723.899 163.557 725.791 164.062 727.45 165.074C729.121 166.085 730.433 167.466 731.388 169.216C732.354 170.955 732.831 172.955 732.82 175.216C732.831 177.477 732.32 179.494 731.286 181.267C730.263 183.04 728.842 184.437 727.024 185.46C725.217 186.472 723.143 186.977 720.803 186.977ZM659.042 197.807C659.82 197.812 660.587 197.955 661.343 198.233C662.098 198.511 662.78 198.966 663.388 199.597C664.002 200.227 664.49 201.08 664.854 202.153C665.223 203.222 665.411 204.551 665.417 206.142C665.417 207.67 665.263 209.031 664.956 210.224C664.65 211.412 664.209 212.415 663.635 213.233C663.067 214.051 662.377 214.673 661.564 215.099C660.752 215.526 659.837 215.739 658.82 215.739C657.78 215.739 656.857 215.534 656.05 215.125C655.243 214.716 654.587 214.151 654.081 213.429C653.576 212.702 653.26 211.866 653.135 210.923H655.735C655.905 211.673 656.252 212.281 656.775 212.747C657.303 213.207 657.985 213.438 658.82 213.438C660.098 213.438 661.096 212.881 661.811 211.767C662.527 210.648 662.888 209.085 662.894 207.08H662.757C662.462 207.568 662.093 207.989 661.65 208.341C661.212 208.693 660.721 208.966 660.175 209.159C659.63 209.352 659.047 209.449 658.428 209.449C657.422 209.449 656.507 209.202 655.684 208.707C654.86 208.213 654.203 207.534 653.715 206.67C653.226 205.807 652.982 204.821 652.982 203.713C652.982 202.611 653.232 201.611 653.732 200.713C654.238 199.815 654.942 199.105 655.846 198.582C656.755 198.054 657.82 197.795 659.042 197.807ZM659.05 200.023C658.385 200.023 657.786 200.187 657.252 200.517C656.723 200.841 656.306 201.281 655.999 201.838C655.692 202.389 655.539 203.003 655.539 203.679C655.539 204.355 655.686 204.969 655.982 205.52C656.283 206.065 656.692 206.5 657.209 206.824C657.732 207.142 658.328 207.301 658.999 207.301C659.499 207.301 659.965 207.205 660.397 207.011C660.828 206.818 661.206 206.551 661.53 206.21C661.854 205.864 662.107 205.472 662.289 205.034C662.471 204.597 662.561 204.136 662.561 203.653C662.561 203.011 662.408 202.415 662.101 201.864C661.8 201.312 661.385 200.869 660.857 200.534C660.328 200.193 659.726 200.023 659.05 200.023ZM668.615 215.5L676.234 200.432V200.304H667.422V198.045H678.961V200.381L671.368 215.5H668.615ZM687.627 215.79C686.28 215.784 685.13 215.429 684.175 214.724C683.221 214.02 682.49 212.994 681.985 211.648C681.479 210.301 681.226 208.679 681.226 206.781C681.226 204.889 681.479 203.273 681.985 201.932C682.496 200.591 683.229 199.568 684.184 198.864C685.144 198.159 686.292 197.807 687.627 197.807C688.962 197.807 690.107 198.162 691.061 198.872C692.016 199.577 692.746 200.599 693.252 201.94C693.763 203.276 694.019 204.889 694.019 206.781C694.019 208.685 693.766 210.31 693.26 211.656C692.755 212.997 692.025 214.023 691.07 214.733C690.115 215.438 688.968 215.79 687.627 215.79ZM687.627 213.514C688.809 213.514 689.732 212.938 690.397 211.784C691.067 210.631 691.402 208.963 691.402 206.781C691.402 205.332 691.249 204.108 690.942 203.108C690.641 202.102 690.206 201.341 689.638 200.824C689.076 200.301 688.405 200.04 687.627 200.04C686.451 200.04 685.527 200.619 684.857 201.778C684.186 202.937 683.848 204.605 683.843 206.781C683.843 208.236 683.993 209.466 684.294 210.472C684.601 211.472 685.036 212.23 685.598 212.747C686.161 213.259 686.837 213.514 687.627 213.514ZM707.449 212.602L697.647 202.801L699.258 201.19L709.059 210.991L707.449 212.602ZM699.258 212.602L697.647 210.991L707.449 201.19L709.059 202.801L699.258 212.602ZM713.027 215.5V213.591L718.933 207.472C719.564 206.807 720.083 206.224 720.493 205.724C720.907 205.219 721.217 204.739 721.422 204.284C721.626 203.83 721.728 203.347 721.728 202.835C721.728 202.256 721.592 201.756 721.319 201.335C721.047 200.909 720.674 200.582 720.203 200.355C719.731 200.122 719.2 200.006 718.609 200.006C717.984 200.006 717.439 200.134 716.973 200.389C716.507 200.645 716.149 201.006 715.899 201.472C715.649 201.937 715.524 202.483 715.524 203.108H713.01C713.01 202.045 713.254 201.116 713.743 200.321C714.231 199.526 714.902 198.909 715.754 198.472C716.606 198.028 717.575 197.807 718.66 197.807C719.757 197.807 720.723 198.026 721.558 198.463C722.399 198.895 723.055 199.486 723.527 200.236C723.998 200.98 724.234 201.821 724.234 202.759C724.234 203.406 724.112 204.04 723.868 204.659C723.629 205.278 723.211 205.969 722.615 206.73C722.018 207.486 721.189 208.403 720.126 209.483L716.657 213.114V213.241H724.515V215.5H713.027ZM733.507 215.739C732.439 215.739 731.478 215.534 730.626 215.125C729.779 214.71 729.103 214.142 728.598 213.42C728.092 212.699 727.822 211.875 727.788 210.949H730.345C730.407 211.699 730.74 212.315 731.342 212.798C731.944 213.281 732.666 213.523 733.507 213.523C734.177 213.523 734.771 213.369 735.288 213.062C735.811 212.75 736.22 212.321 736.515 211.776C736.816 211.23 736.967 210.608 736.967 209.909C736.967 209.199 736.814 208.565 736.507 208.009C736.2 207.452 735.777 207.014 735.237 206.696C734.703 206.378 734.089 206.216 733.396 206.21C732.868 206.21 732.336 206.301 731.802 206.483C731.268 206.665 730.836 206.903 730.507 207.199L728.095 206.841L729.075 198.045H738.672V200.304H731.265L730.711 205.188H730.814C731.154 204.858 731.606 204.582 732.169 204.361C732.737 204.139 733.345 204.028 733.993 204.028C735.055 204.028 736.001 204.281 736.831 204.787C737.666 205.293 738.322 205.983 738.799 206.858C739.282 207.727 739.521 208.727 739.515 209.858C739.521 210.989 739.265 211.997 738.748 212.884C738.237 213.77 737.527 214.469 736.618 214.98C735.714 215.486 734.677 215.739 733.507 215.739ZM748.705 215.79C747.358 215.784 746.208 215.429 745.253 214.724C744.299 214.02 743.569 212.994 743.063 211.648C742.557 210.301 742.304 208.679 742.304 206.781C742.304 204.889 742.557 203.273 743.063 201.932C743.574 200.591 744.307 199.568 745.262 198.864C746.222 198.159 747.37 197.807 748.705 197.807C750.04 197.807 751.185 198.162 752.14 198.872C753.094 199.577 753.824 200.599 754.33 201.94C754.841 203.276 755.097 204.889 755.097 206.781C755.097 208.685 754.844 210.31 754.338 211.656C753.833 212.997 753.103 214.023 752.148 214.733C751.194 215.438 750.046 215.79 748.705 215.79ZM748.705 213.514C749.887 213.514 750.81 212.938 751.475 211.784C752.145 210.631 752.48 208.963 752.48 206.781C752.48 205.332 752.327 204.108 752.02 203.108C751.719 202.102 751.284 201.341 750.716 200.824C750.154 200.301 749.483 200.04 748.705 200.04C747.529 200.04 746.605 200.619 745.935 201.778C745.265 202.937 744.926 204.605 744.921 206.781C744.921 208.236 745.071 209.466 745.373 210.472C745.679 211.472 746.114 212.23 746.676 212.747C747.239 213.259 747.915 213.514 748.705 213.514Z" fill="black"/>
</svg>
